<mxfile host="65bd71144e">
    <diagram id="joUaeKdTTMiCsIj0IbJK" name="Page-1">
        <mxGraphModel dx="1561" dy="1170" grid="1" gridSize="10" guides="1" tooltips="1" connect="1" arrows="1" fold="1" page="1" pageScale="1" pageWidth="827" pageHeight="1169" math="0" shadow="0">
            <root>
                <mxCell id="0"/>
                <mxCell id="1" parent="0"/>
                <mxCell id="15" style="edgeStyle=orthogonalEdgeStyle;orthogonalLoop=1;jettySize=auto;html=1;strokeWidth=3;fontColor=#006600;labelBorderColor=none;fillColor=#60a917;rounded=0;strokeColor=#00CC66;" parent="1" source="6" target="8" edge="1">
                    <mxGeometry relative="1" as="geometry"/>
                </mxCell>
                <mxCell id="6" value="c.matchmaking.list_all_queues" style="rounded=0;whiteSpace=wrap;html=1;fontSize=18;fillColor=#008a00;strokeColor=#005700;fontColor=#ffffff;" parent="1" vertex="1">
                    <mxGeometry x="40" y="120" width="280" height="40" as="geometry"/>
                </mxCell>
                <mxCell id="8" value="s.matchmaking.full_queue_list" style="rounded=0;whiteSpace=wrap;html=1;fontSize=18;fillColor=#0050ef;strokeColor=#001DBC;fontColor=#ffffff;" parent="1" vertex="1">
                    <mxGeometry x="440" y="140" width="280" height="40" as="geometry"/>
                </mxCell>
                <mxCell id="17" style="edgeStyle=orthogonalEdgeStyle;orthogonalLoop=1;jettySize=auto;html=1;strokeWidth=3;fontColor=#006600;labelBorderColor=none;fillColor=#60a917;rounded=0;strokeColor=#00CC66;" parent="1" source="11" target="14" edge="1">
                    <mxGeometry relative="1" as="geometry"/>
                </mxCell>
                <mxCell id="11" value="c.matchmaking.join_queue" style="rounded=0;whiteSpace=wrap;html=1;fontSize=18;fillColor=#008a00;strokeColor=#005700;fontColor=#ffffff;" parent="1" vertex="1">
                    <mxGeometry x="40" y="200" width="280" height="40" as="geometry"/>
                </mxCell>
                <mxCell id="16" style="edgeStyle=orthogonalEdgeStyle;rounded=0;orthogonalLoop=1;jettySize=auto;html=1;fontColor=#006600;strokeColor=#00CC66;strokeWidth=3;fillColor=#60a917;" parent="1" source="12" target="13" edge="1">
                    <mxGeometry relative="1" as="geometry"/>
                </mxCell>
                <mxCell id="12" value="c.matchmaking.leave_queue" style="rounded=0;whiteSpace=wrap;html=1;fontSize=18;fillColor=#008a00;strokeColor=#005700;fontColor=#ffffff;" parent="1" vertex="1">
                    <mxGeometry x="40" y="560" width="280" height="40" as="geometry"/>
                </mxCell>
                <mxCell id="13" value="No reply" style="rounded=0;whiteSpace=wrap;html=1;fontSize=18;fillColor=#0050ef;strokeColor=#001DBC;fontColor=#ffffff;" parent="1" vertex="1">
                    <mxGeometry x="440" y="580" width="280" height="40" as="geometry"/>
                </mxCell>
                <mxCell id="14" value="OK" style="rounded=0;whiteSpace=wrap;html=1;fontSize=18;fillColor=#0050ef;strokeColor=#001DBC;fontColor=#ffffff;" parent="1" vertex="1">
                    <mxGeometry x="440" y="220" width="280" height="40" as="geometry"/>
                </mxCell>
                <mxCell id="21" style="edgeStyle=orthogonalEdgeStyle;rounded=0;orthogonalLoop=1;jettySize=auto;html=1;fontColor=#006600;strokeWidth=3;fillColor=#60a917;strokeColor=#3399FF;" parent="1" source="18" target="19" edge="1">
                    <mxGeometry relative="1" as="geometry">
                        <Array as="points">
                            <mxPoint x="380" y="320"/>
                            <mxPoint x="380" y="410"/>
                        </Array>
                    </mxGeometry>
                </mxCell>
                <mxCell id="22" style="edgeStyle=orthogonalEdgeStyle;rounded=0;orthogonalLoop=1;jettySize=auto;html=1;entryX=1;entryY=0.5;entryDx=0;entryDy=0;fontColor=#006600;strokeWidth=3;fillColor=#60a917;strokeColor=#3399FF;" parent="1" source="18" target="20" edge="1">
                    <mxGeometry relative="1" as="geometry"/>
                </mxCell>
                <mxCell id="18" value="s.matchmaking.ready_check" style="rounded=0;whiteSpace=wrap;html=1;fontSize=18;fillColor=#0050ef;strokeColor=#001DBC;fontColor=#ffffff;" parent="1" vertex="1">
                    <mxGeometry x="440" y="300" width="280" height="40" as="geometry"/>
                </mxCell>
                <mxCell id="36" style="edgeStyle=orthogonalEdgeStyle;rounded=0;orthogonalLoop=1;jettySize=auto;html=1;entryX=0;entryY=0.5;entryDx=0;entryDy=0;fontColor=#006600;strokeColor=#00CC66;strokeWidth=3;fillColor=#60a917;" edge="1" parent="1" source="19" target="35">
                    <mxGeometry relative="1" as="geometry">
                        <Array as="points">
                            <mxPoint x="180" y="460"/>
                        </Array>
                    </mxGeometry>
                </mxCell>
                <mxCell id="19" value="c.matchmaking.ready" style="rounded=0;whiteSpace=wrap;html=1;fontSize=18;fillColor=#008a00;strokeColor=#005700;fontColor=#ffffff;" parent="1" vertex="1">
                    <mxGeometry x="40" y="390" width="280" height="40" as="geometry"/>
                </mxCell>
                <mxCell id="20" value="c.matchmaking.decline" style="rounded=0;whiteSpace=wrap;html=1;fontSize=18;fillColor=#008a00;strokeColor=#005700;fontColor=#ffffff;" parent="1" vertex="1">
                    <mxGeometry x="40" y="340" width="280" height="40" as="geometry"/>
                </mxCell>
                <mxCell id="23" style="edgeStyle=orthogonalEdgeStyle;rounded=0;orthogonalLoop=1;jettySize=auto;html=1;fontColor=#006600;strokeColor=#00CC66;strokeWidth=3;fillColor=#60a917;" edge="1" parent="1" source="24" target="25">
                    <mxGeometry relative="1" as="geometry"/>
                </mxCell>
                <mxCell id="24" value="c.matchmaking.leave_all_queues" style="rounded=0;whiteSpace=wrap;html=1;fontSize=18;fillColor=#008a00;strokeColor=#005700;fontColor=#ffffff;" vertex="1" parent="1">
                    <mxGeometry x="40" y="640" width="280" height="40" as="geometry"/>
                </mxCell>
                <mxCell id="25" value="No reply" style="rounded=0;whiteSpace=wrap;html=1;fontSize=18;fillColor=#0050ef;strokeColor=#001DBC;fontColor=#ffffff;" vertex="1" parent="1">
                    <mxGeometry x="440" y="660" width="280" height="40" as="geometry"/>
                </mxCell>
                <mxCell id="26" value="&lt;span style=&quot;font-family: helvetica; font-size: 18px; font-style: normal; font-weight: 400; letter-spacing: normal; text-indent: 0px; text-transform: none; word-spacing: 0px; display: inline; float: none;&quot;&gt;Core list, join, accept process&lt;/span&gt;" style="text;whiteSpace=wrap;html=1;align=center;labelBackgroundColor=none;fillColor=#a20025;strokeColor=#6F0000;fontColor=#ffffff;" vertex="1" parent="1">
                    <mxGeometry x="240" y="80" width="280" height="30" as="geometry"/>
                </mxCell>
                <mxCell id="27" value="&lt;span style=&quot;font-family: helvetica; font-size: 18px; font-style: normal; font-weight: 400; letter-spacing: normal; text-indent: 0px; text-transform: none; word-spacing: 0px; display: inline; float: none;&quot;&gt;Exiting queues&lt;/span&gt;" style="text;whiteSpace=wrap;html=1;align=center;labelBackgroundColor=none;fillColor=#a20025;strokeColor=#6F0000;fontColor=#ffffff;" vertex="1" parent="1">
                    <mxGeometry x="255" y="510" width="230" height="30" as="geometry"/>
                </mxCell>
                <mxCell id="28" style="edgeStyle=orthogonalEdgeStyle;rounded=0;orthogonalLoop=1;jettySize=auto;html=1;fontColor=#006600;strokeColor=#00CC66;strokeWidth=3;fillColor=#60a917;" edge="1" parent="1" source="29" target="30">
                    <mxGeometry relative="1" as="geometry"/>
                </mxCell>
                <mxCell id="29" value="c.matchmaking.get_queue_info" style="rounded=0;whiteSpace=wrap;html=1;fontSize=18;fillColor=#008a00;strokeColor=#005700;fontColor=#ffffff;" vertex="1" parent="1">
                    <mxGeometry x="40" y="810" width="280" height="40" as="geometry"/>
                </mxCell>
                <mxCell id="30" value="s.matchmaking.queue_info" style="rounded=0;whiteSpace=wrap;html=1;fontSize=18;fillColor=#0050ef;strokeColor=#001DBC;fontColor=#ffffff;" vertex="1" parent="1">
                    <mxGeometry x="440" y="830" width="280" height="40" as="geometry"/>
                </mxCell>
                <mxCell id="31" style="edgeStyle=orthogonalEdgeStyle;rounded=0;orthogonalLoop=1;jettySize=auto;html=1;fontColor=#006600;strokeColor=#00CC66;strokeWidth=3;fillColor=#60a917;" edge="1" parent="1" source="32" target="33">
                    <mxGeometry relative="1" as="geometry"/>
                </mxCell>
                <mxCell id="32" value="c.matchmaking.list_my_queues" style="rounded=0;whiteSpace=wrap;html=1;fontSize=18;fillColor=#008a00;strokeColor=#005700;fontColor=#ffffff;" vertex="1" parent="1">
                    <mxGeometry x="40" y="890" width="280" height="40" as="geometry"/>
                </mxCell>
                <mxCell id="33" value="s.matchmaking.your_queue_list" style="rounded=0;whiteSpace=wrap;html=1;fontSize=18;fillColor=#0050ef;strokeColor=#001DBC;fontColor=#ffffff;" vertex="1" parent="1">
                    <mxGeometry x="440" y="910" width="280" height="40" as="geometry"/>
                </mxCell>
                <mxCell id="34" value="&lt;span style=&quot;font-family: helvetica; font-size: 18px; font-style: normal; font-weight: 400; letter-spacing: normal; text-indent: 0px; text-transform: none; word-spacing: 0px; display: inline; float: none;&quot;&gt;Optional info gathering&lt;/span&gt;" style="text;whiteSpace=wrap;html=1;align=center;labelBackgroundColor=none;fillColor=#a20025;strokeColor=#6F0000;fontColor=#ffffff;" vertex="1" parent="1">
                    <mxGeometry x="255" y="760" width="230" height="30" as="geometry"/>
                </mxCell>
                <mxCell id="35" value="s.matchmaking.match_cancelled" style="rounded=0;whiteSpace=wrap;html=1;fontSize=18;fillColor=#0050ef;strokeColor=#001DBC;fontColor=#ffffff;" vertex="1" parent="1">
                    <mxGeometry x="440" y="440" width="280" height="40" as="geometry"/>
                </mxCell>
                <mxCell id="38" value="&lt;span style=&quot;font-family: &amp;#34;helvetica&amp;#34; ; font-size: 18px ; font-style: normal ; font-weight: 400 ; letter-spacing: normal ; text-indent: 0px ; text-transform: none ; word-spacing: 0px ; display: inline ; float: none&quot;&gt;Lobby client&lt;br&gt;&lt;/span&gt;" style="text;whiteSpace=wrap;html=1;align=center;labelBackgroundColor=none;fillColor=#a20025;strokeColor=#6F0000;fontColor=#ffffff;" vertex="1" parent="1">
                    <mxGeometry x="40" y="30" width="280" height="30" as="geometry"/>
                </mxCell>
                <mxCell id="39" value="&lt;span style=&quot;font-family: &amp;#34;helvetica&amp;#34; ; font-size: 18px ; font-style: normal ; font-weight: 400 ; letter-spacing: normal ; text-indent: 0px ; text-transform: none ; word-spacing: 0px ; display: inline ; float: none&quot;&gt;Teiserver&lt;br&gt;&lt;/span&gt;" style="text;whiteSpace=wrap;html=1;align=center;labelBackgroundColor=none;fillColor=#a20025;strokeColor=#6F0000;fontColor=#ffffff;" vertex="1" parent="1">
                    <mxGeometry x="440" y="30" width="280" height="30" as="geometry"/>
                </mxCell>
            </root>
        </mxGraphModel>
    </diagram>
</mxfile>